<?xml version="1.0" encoding="UTF-8" standalone="no"?>
<svg xmlns="http://www.w3.org/2000/svg" viewBox="0 0 350 122">
  <!-- ADIB Text -->
  <g fill="#003366">
    <path d="M124 85.5l-19-48h16.5l11 31h.5l11-31h15.5l-19 48z"/>
    <path d="M175 85.5V38h15v47.5z"/>
    <path d="M243 85.5V63c0-5-3-8-7-8s-7 3-7 8v22.5h-15V63c0-5-3-8-7-8s-7 3-7 8v22.5h-15V38h15v4.5c2-3.5 7-5.5 12-5.5 6 0 10.5 2 13 6.5 3-4 8-6.5 14-6.5 11 0 19 6 19 19v29.5z"/>
  </g>
  
  <!-- Circle with Starburst -->
  <circle cx="290" cy="62" r="30" fill="#006699"/>
  <circle cx="290" cy="62" r="30" fill="url(#blueGradient)"/>
  
  <!-- Starburst/Rays -->
  <path d="M290 32c-16.6 0-30 13.4-30 30s13.4 30 30 30 30-13.4 30-30-13.4-30-30-30zm0 58c-15.5 0-28-12.5-28-28s12.5-28 28-28 28 12.5 28 28-12.5 28-28 28z" fill="#FFFFFF"/>
  <path d="M315 52c-10 5-22 10-33 10-4 0-7-1-9-2 15-4 26-13 30-21 5 3 9 8 12 13z" fill="#FFFFFF"/>
  
  <!-- Arabic Text Above -->
  <path d="M120 30c0 0 20-10 45-10s45 10 45 10" stroke="#003366" fill="none" stroke-width="1.5"/>
  
  <!-- Gradients -->
  <defs>
    <linearGradient id="blueGradient" x1="0%" y1="0%" x2="100%" y2="100%">
      <stop offset="0%" style="stop-color:#00A8E1;stop-opacity:1" />
      <stop offset="100%" style="stop-color:#003366;stop-opacity:1" />
    </linearGradient>
  </defs>
</svg>